<?xml version="1.0" encoding="utf-8"?>
<!-- Generator: Adobe Illustrator 16.0.3, SVG Export Plug-In . SVG Version: 6.00 Build 0)  -->
<!DOCTYPE svg PUBLIC "-//W3C//DTD SVG 1.1//EN" "http://www.w3.org/Graphics/SVG/1.1/DTD/svg11.dtd">
<svg version="1.1" id="Layer_1" xmlns="http://www.w3.org/2000/svg" xmlns:xlink="http://www.w3.org/1999/xlink" x="0px" y="0px"
	 width="764.961px" height="120.041px" viewBox="0 0 764.961 120.041" enable-background="new 0 0 764.961 120.041"
	 xml:space="preserve">
<rect fill="#E37325" width="764.961" height="120.041"/>
<g>
	<path d="M132.858,103.572L80.882,13.539c-0.531-0.916-1.502-1.465-2.546-1.465s-2.015,0.568-2.546,1.465l-51.976,90.033
		c-0.531,0.915-0.531,2.032,0,2.93c0.531,0.916,1.502,1.466,2.546,1.466h103.952c1.044,0,2.015-0.566,2.545-1.466
		C133.389,105.586,133.389,104.47,132.858,103.572z"/>
	<path id="path1995_1_" fill="#E37325" d="M85.294,91.674c0,3.832-3.107,6.939-6.939,6.939c-3.833,0-6.94-3.107-6.94-6.939
		c0-3.833,3.107-6.938,6.94-6.938C82.188,84.733,85.294,87.841,85.294,91.674L85.294,91.674z"/>
	<path id="rect1997_1_" fill="#E37325" d="M78.355,42.952c-3.782,0-6.825,3.109-6.825,6.97l2.018,24.415
		c0.385,3.158,0.714,4.948,2.018,5.789c0.851,0.389,1.794,0.607,2.79,0.607c0.99,0,1.929-0.217,2.777-0.602
		c1.311-0.84,1.644-2.631,2.03-5.796l2.018-24.415C85.18,46.061,82.136,42.952,78.355,42.952L78.355,42.952z"/>
</g>
<g>
	<path d="M158.11,15.094l12.007,52.077l2.615,14.492l2.623-14.195l10.271-52.374h20.051l10.805,52.069l2.768,14.5l2.807-13.936
		l12.123-52.634h19.348l-25.583,90.939H209.75l-10.982-53.181l-3.208-17.583l-3.208,17.583l-10.982,53.181h-17.647l-25.786-90.939
		H158.11z"/>
	<path d="M284.092,15.094h21.501l32.174,90.939h-20.605L311.16,87.34h-33.489l-6.165,18.693H251.63L284.092,15.094z M282.84,71.669
		h23.29l-11.488-35.783L282.84,71.669z"/>
	<path d="M407.612,17.439c3.348,1.44,6.186,3.558,8.512,6.354c1.926,2.304,3.449,4.854,4.572,7.65
		c1.123,2.797,1.686,5.984,1.686,9.563c0,4.319-1.09,8.566-3.27,12.74c-2.182,4.175-5.779,7.125-10.797,8.853
		c4.195,1.688,7.166,4.084,8.916,7.188c1.746,3.106,2.621,7.846,2.621,14.221v6.108c0,4.154,0.166,6.971,0.502,8.451
		c0.5,2.345,1.67,4.072,3.508,5.183v2.283h-20.977c-0.576-2.015-0.986-3.64-1.232-4.874c-0.494-2.551-0.764-5.161-0.805-7.835
		l-0.123-8.452c-0.076-5.8-1.078-9.665-3.006-11.6c-1.926-1.934-5.535-2.899-10.824-2.899h-18.559v35.66h-18.571V15.094h43.498
		C399.479,15.218,404.262,16,407.612,17.439z M368.337,30.888V55.32h20.451c4.061,0,7.107-0.494,9.139-1.481
		c3.596-1.728,5.393-5.141,5.393-10.241c0-5.511-1.738-9.213-5.215-11.105c-1.953-1.069-4.885-1.604-8.789-1.604L368.337,30.888
		L368.337,30.888z"/>
	<path d="M440.274,15.094h19.92l36.1,63.41v-63.41H514v90.939h-18.998l-37.021-64.524v64.524h-17.707V15.094L440.274,15.094z"/>
	<path d="M549.167,106.033h-18.879V15.094h18.879V106.033z"/>
	<path d="M566.625,15.094h19.92l36.1,63.41v-63.41h17.707v90.939h-18.998l-37.021-64.524v64.524h-17.705V15.094H566.625z"/>
	<path d="M719.321,43.474c-1.439-6.21-4.957-10.55-10.549-13.018c-3.129-1.357-6.604-2.036-10.428-2.036
		c-7.32,0-13.338,2.761-18.047,8.283s-7.063,13.824-7.063,24.905c0,11.168,2.549,19.069,7.648,23.709
		c5.102,4.639,10.9,6.957,17.398,6.957c6.375,0,11.6-1.828,15.672-5.486c4.07-3.658,6.58-8.451,7.525-14.379h-21.037V57.232h37.881
		v48.801h-12.586l-1.912-11.353c-3.662,4.299-6.951,7.33-9.871,9.09c-5.02,3.07-11.189,4.606-18.51,4.606
		c-12.053,0-21.922-4.173-29.613-12.517c-8.021-8.385-12.031-19.854-12.031-34.404c0-14.714,4.051-26.511,12.154-35.39
		c8.102-8.878,18.816-13.317,32.143-13.317c11.559,0,20.844,2.931,27.855,8.792s11.033,13.172,12.063,21.933H719.321z"/>
</g>
</svg>
