<?xml version="1.0" encoding="utf-8"?>
<!-- Generator: Adobe Illustrator 16.0.3, SVG Export Plug-In . SVG Version: 6.00 Build 0)  -->
<!DOCTYPE svg PUBLIC "-//W3C//DTD SVG 1.1//EN" "http://www.w3.org/Graphics/SVG/1.1/DTD/svg11.dtd">
<svg version="1.1" id="Layer_1" xmlns="http://www.w3.org/2000/svg" xmlns:xlink="http://www.w3.org/1999/xlink" x="0px" y="0px"
	 width="764.962px" height="120.041px" viewBox="0 0 764.962 120.041" enable-background="new 0 0 764.962 120.041"
	 xml:space="preserve">
<rect fill="#0D4E96" width="764.962" height="120.041"/>
<g>
	<path fill="#F1F2F2" d="M153.129,15.094h19.921l36.099,63.41v-63.41h17.707v90.939h-18.999l-37.021-64.524v64.524h-17.707V15.094z"
		/>
	<path fill="#F1F2F2" d="M314.709,97.951c-6.869,7.074-16.802,10.611-29.799,10.611c-12.997,0-22.93-3.537-29.799-10.611
		c-9.213-8.678-13.819-21.182-13.819-37.511c0-16.658,4.606-29.161,13.819-37.511c6.869-7.074,16.802-10.612,29.799-10.612
		c12.997,0,22.93,3.538,29.799,10.612c9.171,8.35,13.757,20.853,13.757,37.511C328.467,76.77,323.881,89.273,314.709,97.951z
		 M302.833,84.132c4.421-5.553,6.632-13.45,6.632-23.691c0-10.2-2.211-18.086-6.632-23.66c-4.422-5.573-10.396-8.36-17.923-8.36
		s-13.532,2.776-18.015,8.329c-4.484,5.552-6.725,13.45-6.725,23.691s2.241,18.139,6.725,23.691
		c4.482,5.552,10.488,8.328,18.015,8.328S298.412,89.684,302.833,84.132z"/>
	<path fill="#F1F2F2" d="M409.042,15.094v16.103h-27.208v74.836h-19.125V31.197h-27.331V15.094H409.042z"/>
	<path fill="#F1F2F2" d="M437.483,106.033h-18.879V15.094h18.879V106.033z"/>
	<path fill="#F1F2F2" d="M463.938,24.595c7.325-7.485,16.643-11.229,27.955-11.229c15.137,0,26.204,5.019,33.204,15.054
		c3.865,5.636,5.939,11.291,6.225,16.966h-19.002c-1.209-4.359-2.761-7.65-4.654-9.871c-3.384-3.949-8.4-5.923-15.049-5.923
		c-6.77,0-12.109,2.787-16.018,8.36c-3.907,5.574-5.861,13.46-5.861,23.66c0,10.201,2.062,17.841,6.186,22.92
		c4.124,5.08,9.364,7.619,15.721,7.619c6.518,0,11.487-2.179,14.907-6.539c1.891-2.345,3.46-5.861,4.707-10.55h18.879
		c-1.628,9.912-5.789,17.975-12.481,24.185c-6.694,6.211-15.269,9.315-25.727,9.315c-12.939,0-23.112-4.195-30.518-12.586
		c-7.405-8.431-11.108-19.989-11.108-34.673C451.303,45.428,455.515,33.192,463.938,24.595z"/>
	<path fill="#F1F2F2" d="M613.746,31.197h-48.122v19.311h44.174v15.794h-44.174v23.382h50.344v16.35h-68.914V15.094h66.692V31.197z"
		/>
</g>
<g>
</g>
<g>
</g>
<g>
</g>
<g>
</g>
<g>
</g>
<g>
</g>
</svg>
