<?xml version="1.0" encoding="utf-8"?>
<!-- Generator: Adobe Illustrator 16.0.3, SVG Export Plug-In . SVG Version: 6.00 Build 0)  -->
<!DOCTYPE svg PUBLIC "-//W3C//DTD SVG 1.1//EN" "http://www.w3.org/Graphics/SVG/1.1/DTD/svg11.dtd">
<svg version="1.1" id="Layer_1" xmlns="http://www.w3.org/2000/svg" xmlns:xlink="http://www.w3.org/1999/xlink" x="0px" y="0px"
	 width="734.963px" height="120.041px" viewBox="0 0 734.963 120.041" enable-background="new 0 0 734.963 120.041"
	 xml:space="preserve">
<rect fill="#FED105" width="734.963" height="120.041"/>
<g>
	<path d="M132.858,103.572L80.882,13.539c-0.531-0.916-1.502-1.465-2.546-1.465s-2.015,0.568-2.546,1.465l-51.976,90.033
		c-0.531,0.915-0.531,2.032,0,2.93c0.531,0.916,1.502,1.466,2.546,1.466h103.952c1.044,0,2.015-0.566,2.545-1.466
		C133.389,105.586,133.389,104.47,132.858,103.572z"/>
	<path id="path1995_1_" fill="#FED105" d="M85.294,91.674c0,3.832-3.107,6.939-6.939,6.939c-3.833,0-6.94-3.107-6.94-6.939
		c0-3.833,3.107-6.938,6.94-6.938C82.188,84.733,85.294,87.841,85.294,91.674L85.294,91.674z"/>
	<path id="rect1997_1_" fill="#FED105" d="M78.355,42.952c-3.782,0-6.825,3.109-6.825,6.97l2.018,24.415
		c0.385,3.158,0.714,4.948,2.018,5.789c0.851,0.389,1.794,0.607,2.79,0.607c0.99,0,1.929-0.217,2.777-0.602
		c1.311-0.84,1.644-2.631,2.03-5.796l2.018-24.415C85.18,46.061,82.136,42.952,78.355,42.952L78.355,42.952z"/>
</g>
<g>
	<path d="M166.01,24.595c7.324-7.485,16.642-11.229,27.955-11.229c15.137,0,26.204,5.019,33.204,15.054
		c3.866,5.636,5.94,11.291,6.226,16.966h-19.002c-1.208-4.359-2.761-7.65-4.654-9.871c-3.385-3.949-8.401-5.923-15.049-5.923
		c-6.77,0-12.11,2.787-16.018,8.36c-3.908,5.574-5.862,13.46-5.862,23.66c0,10.201,2.062,17.841,6.186,22.92
		c4.124,5.08,9.364,7.619,15.721,7.619c6.518,0,11.487-2.18,14.907-6.539c1.89-2.346,3.459-5.861,4.707-10.551h18.879
		c-1.628,9.912-5.789,17.976-12.482,24.186c-6.694,6.211-15.269,9.314-25.726,9.314c-12.939,0-23.112-4.194-30.518-12.586
		c-7.406-8.431-11.108-19.988-11.108-34.673C153.375,45.428,157.586,33.192,166.01,24.595z"/>
	<path d="M274.575,15.094h21.501l32.174,90.939h-20.605l-6.001-18.693h-33.489l-6.165,18.693h-19.876L274.575,15.094z
		 M273.323,71.669h23.29l-11.488-35.783L273.323,71.669z"/>
	<path d="M339.818,15.094h19.311v55.853c0,6.246,0.737,10.808,2.214,13.685c2.294,5.097,7.294,7.646,15,7.646
		c7.662,0,12.644-2.549,14.938-7.646c1.475-2.877,2.213-7.438,2.213-13.685V15.094h19.311V70.99c0,9.666-1.498,17.192-4.496,22.579
		c-5.584,9.873-16.237,14.809-31.965,14.809s-26.402-4.936-32.027-14.809c-2.998-5.387-4.496-12.913-4.496-22.579V15.094H339.818z"
		/>
	<path d="M497.142,15.094v16.104h-27.208v74.836h-19.125V31.197h-27.331V15.094H497.142z"/>
	<path d="M525.583,106.033h-18.879V15.094h18.879V106.033z"/>
	<path d="M613.375,97.951c-6.869,7.073-16.802,10.61-29.799,10.61s-22.932-3.537-29.799-10.61
		c-9.215-8.679-13.819-21.183-13.819-37.511c0-16.658,4.604-29.161,13.819-37.511c6.867-7.074,16.802-10.612,29.799-10.612
		s22.93,3.538,29.799,10.612c9.172,8.35,13.758,20.853,13.758,37.511C627.133,76.771,622.547,89.272,613.375,97.951z
		 M601.499,84.132c4.421-5.553,6.632-13.449,6.632-23.691c0-10.2-2.211-18.086-6.632-23.66c-4.422-5.573-10.396-8.36-17.923-8.36
		c-7.526,0-13.532,2.776-18.016,8.329c-4.482,5.552-6.725,13.45-6.725,23.691c0,10.242,2.241,18.139,6.725,23.691
		c4.482,5.553,10.488,8.328,18.016,8.328S597.077,89.685,601.499,84.132z"/>
	<path d="M641.323,15.094h19.92l36.099,63.41v-63.41h17.707v90.939h-18.998L659.03,41.509v64.524h-17.706L641.323,15.094
		L641.323,15.094z"/>
</g>
</svg>
