<?xml version="1.0" encoding="utf-8"?>
<!-- Generator: Adobe Illustrator 16.0.3, SVG Export Plug-In . SVG Version: 6.00 Build 0)  -->
<!DOCTYPE svg PUBLIC "-//W3C//DTD SVG 1.1//EN" "http://www.w3.org/Graphics/SVG/1.1/DTD/svg11.dtd">
<svg version="1.1" id="Layer_1" xmlns="http://www.w3.org/2000/svg" xmlns:xlink="http://www.w3.org/1999/xlink" x="0px" y="0px"
	 width="706.465px" height="120.041px" viewBox="0 0 706.465 120.041" enable-background="new 0 0 706.465 120.041"
	 xml:space="preserve">
<rect fill="#B7202E" width="706.465" height="120.041"/>
<g>
	<path fill="#FFFFFF" d="M205.402,17.52c6.38,2.098,11.546,5.944,15.498,11.538c3.17,4.525,5.331,9.419,6.483,14.684
		c1.152,5.265,1.729,10.283,1.729,15.053c0,12.093-2.429,22.334-7.286,30.726c-6.586,11.313-16.753,16.967-30.502,16.967h-39.209
		v-90.94h39.209C196.964,15.629,201.656,16.287,205.402,17.52z M170.563,31.34v59.353h17.549c8.981,0,15.242-4.422,18.785-13.266
		c1.936-4.854,2.904-10.633,2.904-17.337c0-9.254-1.453-16.359-4.356-21.316c-2.904-4.956-8.682-7.435-17.333-7.435L170.563,31.34
		L170.563,31.34z"/>
	<path fill="#FFFFFF" d="M269.37,15.546h21.501l32.175,90.939H302.44l-6.001-18.692h-33.49l-6.165,18.692h-19.877L269.37,15.546z
		 M268.118,72.121h23.291L279.92,36.338L268.118,72.121z"/>
	<path fill="#FFFFFF" d="M334.306,15.546h19.921l36.101,63.411V15.546h17.707v90.939h-18.999L352.012,41.96v64.525h-17.706V15.546z"
		/>
	<path fill="#FFFFFF" d="M487.003,43.926c-1.438-6.21-4.957-10.55-10.55-13.018c-3.126-1.357-6.602-2.036-10.427-2.036
		c-7.321,0-13.337,2.761-18.046,8.283c-4.711,5.521-7.064,13.824-7.064,24.906c0,11.168,2.551,19.068,7.65,23.707
		c5.1,4.641,10.898,6.959,17.398,6.959c6.374,0,11.598-1.828,15.671-5.486c4.071-3.659,6.579-8.452,7.526-14.381h-21.039V57.685
		h37.882v48.802h-12.587l-1.912-11.353c-3.66,4.3-6.95,7.33-9.87,9.091c-5.02,3.069-11.188,4.605-18.51,4.605
		c-12.052,0-21.924-4.173-29.614-12.518c-8.021-8.385-12.029-19.854-12.029-34.403c0-14.715,4.051-26.512,12.153-35.391
		c8.104-8.879,18.816-13.318,32.145-13.318c11.558,0,20.842,2.931,27.854,8.792c7.012,5.861,11.033,13.172,12.063,21.933H487.003z"
		/>
	<path fill="#FFFFFF" d="M591.394,31.649h-48.122V50.96h44.175v15.794h-44.175v23.383h50.345v16.351H524.7v-90.94h66.692
		L591.394,31.649L591.394,31.649z"/>
	<path fill="#FFFFFF" d="M666.7,17.891c3.35,1.44,6.187,3.558,8.514,6.354c1.925,2.304,3.448,4.854,4.572,7.65
		c1.122,2.798,1.685,5.984,1.685,9.563c0,4.318-1.091,8.566-3.27,12.74c-2.183,4.175-5.78,7.125-10.797,8.854
		c4.194,1.688,7.166,4.082,8.914,7.188s2.622,7.846,2.622,14.221v6.106c0,4.156,0.168,6.974,0.502,8.453
		c0.501,2.345,1.671,4.072,3.509,5.183v2.282h-20.978c-0.577-2.014-0.986-3.641-1.233-4.873c-0.493-2.551-0.762-5.161-0.803-7.836
		l-0.122-8.452c-0.078-5.8-1.08-9.664-3.007-11.599c-1.927-1.934-5.534-2.899-10.825-2.899h-18.56v35.659h-18.57V15.546h43.497
		C658.568,15.67,663.351,16.451,666.7,17.891z M627.425,31.34v24.432h20.45c4.063,0,7.108-0.493,9.142-1.48
		c3.595-1.728,5.391-5.142,5.391-10.242c0-5.511-1.739-9.213-5.215-11.105c-1.953-1.07-4.884-1.604-8.789-1.604L627.425,31.34
		L627.425,31.34z"/>
</g>
<g>
	<path fill="#FFFFFF" d="M129.859,103.572L77.883,13.539c-0.531-0.916-1.502-1.465-2.546-1.465s-2.015,0.568-2.546,1.465
		l-51.976,90.033c-0.531,0.915-0.531,2.032,0,2.93c0.531,0.916,1.502,1.466,2.546,1.466h103.952c1.044,0,2.015-0.566,2.545-1.466
		C130.39,105.586,130.39,104.47,129.859,103.572z"/>
	<path id="path1995_1_" fill="#B7202E" d="M82.295,91.674c0,3.832-3.107,6.939-6.939,6.939c-3.833,0-6.94-3.107-6.94-6.939
		c0-3.833,3.107-6.938,6.94-6.938C79.188,84.733,82.295,87.841,82.295,91.674L82.295,91.674z"/>
	<path id="rect1997_1_" fill="#B7202E" d="M75.356,42.952c-3.782,0-6.825,3.109-6.825,6.97l2.018,24.415
		c0.385,3.158,0.714,4.948,2.018,5.789c0.851,0.389,1.794,0.607,2.79,0.607c0.99,0,1.929-0.217,2.777-0.602
		c1.311-0.84,1.644-2.631,2.03-5.796l2.018-24.415C82.181,46.061,79.137,42.952,75.356,42.952L75.356,42.952z"/>
</g>
</svg>
